<?xml version="1.0" encoding="UTF-8"?>
<svg version="1.1" xmlns="http://www.w3.org/2000/svg" width="500" height="500">
<path d="M0 0 C1.29139893 0.0165564 1.29139893 0.0165564 2.60888672 0.03344727 C3.3567041 0.04303467 4.10452148 0.05262207 4.875 0.0625 C7.69910673 6.17177228 10.13540091 12.33024082 12.328125 18.69140625 C12.63320984 19.56651352 12.93829468 20.44162079 13.25262451 21.34324646 C14.21368782 24.10259294 15.169432 26.8637463 16.125 29.625 C16.78089716 31.51119044 17.43714399 33.39725933 18.09375 35.28320312 C19.69154131 39.87490832 21.28456934 44.46824037 22.875 49.0625 C23.26679443 48.23830566 23.65858887 47.41411133 24.06225586 46.56494141 C24.58698486 45.48390137 25.11171387 44.40286133 25.65234375 43.2890625 C26.16788818 42.21736816 26.68343262 41.14567383 27.21459961 40.04150391 C29.94590272 35.14114211 33.45692496 32.50027435 38.1875 29.6875 C42.39311016 28.70945113 46.57812437 28.91231794 50.875 29.0625 C57.23003925 41.05111268 63.56069125 53.05238645 69.875 65.0625 C70.205 65.0625 70.535 65.0625 70.875 65.0625 C71.1225 63.99 71.37 62.9175 71.625 61.8125 C73.1364642 57.27810741 74.90597349 55.53926988 78.625 52.75 C82.16072657 51.6696391 85.3996087 51.98464504 88.875 53.0625 C92.12531914 55.67688713 94.39048893 58.16736086 95.875 62.0625 C95.94842802 66.75577397 95.36824543 71.39821798 94.875 76.0625 C94.77316406 77.21492188 94.67132813 78.36734375 94.56640625 79.5546875 C93.54895041 88.47053767 90.81885154 94.31103146 84.3125 100.5 C79.92715968 103.31111559 76.89945512 104.15990361 71.69921875 104.109375 C70.79647217 104.10260742 69.89372559 104.09583984 68.96362305 104.08886719 C68.27437744 104.08016602 67.58513184 104.07146484 66.875 104.0625 C66.48231934 103.33248779 66.08963867 102.60247559 65.68505859 101.8503418 C64.19800676 99.08620827 62.71066659 96.32223011 61.22314453 93.55834961 C60.27484972 91.79617709 59.32687369 90.03383303 58.37890625 88.27148438 C54.56697439 81.18931623 50.73537747 74.11838233 46.875 67.0625 C46.77703125 68.32964844 46.6790625 69.59679687 46.578125 70.90234375 C44.80774372 91.69297523 44.80774372 91.69297523 36.9375 99 C32.10167619 102.83316676 28.89784474 104.14263377 22.7109375 104.09765625 C21.80649902 104.09258057 20.90206055 104.08750488 19.97021484 104.08227539 C19.27879395 104.07574951 18.58737305 104.06922363 17.875 104.0625 C15.77457121 98.19121067 13.6749863 92.31962051 11.57617188 86.44775391 C10.86253489 84.45157784 10.14867016 82.45548318 9.43457031 80.45947266 C8.40629695 77.58517652 7.37885156 74.71058556 6.3515625 71.8359375 C6.03377838 70.94820648 5.71599426 70.06047546 5.38858032 69.14584351 C3.83626346 64.79951253 2.31198476 60.44875478 0.875 56.0625 C-1.24096803 65.25647402 -2.03306325 74.50643619 -2.8046875 83.89453125 C-3.46693152 90.85561895 -4.35243778 96.11893499 -8.125 102.0625 C-11.49649279 104.59111959 -14.05962758 105.3034869 -18.1875 105.0625 C-22.38788184 104.34634294 -24.45455002 102.38033179 -27.125 99.0625 C-30.93376195 91.44497611 -27.5913651 78.55867848 -26.6640625 70.42578125 C-26.51147922 69.05206522 -26.35933777 67.67830004 -26.20761108 66.30448914 C-25.89063019 63.4475425 -25.56913242 60.59115359 -25.24414062 57.73510742 C-24.83057928 54.0984193 -24.42733338 50.46067704 -24.02732277 46.82247639 C-23.71531539 43.9934254 -23.39841605 41.16493877 -23.08002853 38.33659935 C-22.85722519 36.35124039 -22.63799278 34.36548172 -22.41885376 32.37971497 C-19.98928369 11.17397788 -19.98928369 11.17397788 -13.15625 5.3984375 C-8.57149783 1.89342769 -5.86343996 -0.07517231 0 0 Z " fill="#AA74D0" transform="translate(212.125,167.9375)"/>
<path d="M0 0 C0.91007812 0.00902344 1.82015625 0.01804688 2.7578125 0.02734375 C3.80582031 0.04474609 3.80582031 0.04474609 4.875 0.0625 C6.03943861 3.55581582 5.36062306 5.3356138 4.42019653 8.79873657 C3.48597172 12.67782206 3.19093388 16.6067785 2.83984375 20.57421875 C2.75626114 21.4643013 2.67267853 22.35438385 2.58656311 23.2714386 C2.32275699 26.09712451 2.06760648 28.9235169 1.8125 31.75 C1.63791384 33.62700381 1.46278804 35.50395751 1.28710938 37.38085938 C0.49292502 45.92277528 -0.25021983 54.46524571 -0.88989258 63.02026367 C-1.337496 68.81214965 -1.87094808 74.59366631 -2.4375 80.375 C-2.54255859 81.58478516 -2.64761719 82.79457031 -2.75585938 84.04101562 C-3.44568512 90.93550353 -4.40375176 96.16759259 -8.125 102.0625 C-11.49649279 104.59111959 -14.05962758 105.3034869 -18.1875 105.0625 C-22.38788184 104.34634294 -24.45455002 102.38033179 -27.125 99.0625 C-30.93376195 91.44497611 -27.5913651 78.55867848 -26.6640625 70.42578125 C-26.51147922 69.05206522 -26.35933777 67.67830004 -26.20761108 66.30448914 C-25.89063019 63.4475425 -25.56913242 60.59115359 -25.24414062 57.73510742 C-24.83057928 54.0984193 -24.42733338 50.46067704 -24.02732277 46.82247639 C-23.71531539 43.9934254 -23.39841605 41.16493877 -23.08002853 38.33659935 C-22.85722519 36.35124039 -22.63799278 34.36548172 -22.41885376 32.37971497 C-19.98928369 11.17397788 -19.98928369 11.17397788 -13.15625 5.3984375 C-8.57149783 1.89342769 -5.86343996 -0.07517231 0 0 Z " fill="#AB74CF" transform="translate(212.125,167.9375)"/>
<path d="M0 0 C1.20970459 0.00523682 2.41940918 0.01047363 3.66577148 0.01586914 C4.97094727 0.0190918 6.27612305 0.02231445 7.62084961 0.02563477 C9.00952213 0.03399138 10.39819401 0.04245634 11.78686523 0.05102539 C13.17944179 0.05603873 14.57202005 0.06060193 15.96459961 0.06469727 C19.38456394 0.07653105 22.80444367 0.09301659 26.22436523 0.11352539 C26.60499744 2.43961109 26.93706468 4.77407803 27.22436523 7.11352539 C26.22436523 8.11352539 26.22436523 8.11352539 24.45849609 8.22705078 C23.70963135 8.22181396 22.9607666 8.21657715 22.18920898 8.21118164 C21.38032227 8.20795898 20.57143555 8.20473633 19.73803711 8.20141602 C18.88790039 8.19303711 18.03776367 8.1846582 17.16186523 8.17602539 C16.30786133 8.17151367 15.45385742 8.16700195 14.57397461 8.16235352 C12.4574086 8.15052912 10.34087838 8.13259308 8.22436523 8.11352539 C8.22436523 9.10352539 8.22436523 10.09352539 8.22436523 11.11352539 C9.61461914 11.09612305 9.61461914 11.09612305 11.03295898 11.07836914 C12.23049805 11.0693457 13.42803711 11.06032227 14.66186523 11.05102539 C15.85682617 11.03942383 17.05178711 11.02782227 18.28295898 11.01586914 C21.22436523 11.11352539 21.22436523 11.11352539 22.22436523 12.11352539 C22.22436523 14.42352539 22.22436523 16.73352539 22.22436523 19.11352539 C17.60436523 19.11352539 12.98436523 19.11352539 8.22436523 19.11352539 C8.22436523 20.10352539 8.22436523 21.09352539 8.22436523 22.11352539 C14.16436523 22.11352539 20.10436523 22.11352539 26.22436523 22.11352539 C26.22436523 22.77352539 26.22436523 23.43352539 26.22436523 24.11352539 C26.88436523 24.11352539 27.54436523 24.11352539 28.22436523 24.11352539 C28.59561523 22.89665039 28.96686523 21.67977539 29.34936523 20.42602539 C31.67636023 13.40029049 34.91827516 6.72570554 38.22436523 0.11352539 C42.51436523 0.11352539 46.80436523 0.11352539 51.22436523 0.11352539 C55.40725811 8.37082113 59.45825474 16.65532315 63.22436523 25.11352539 C63.26194946 24.08412842 63.26194946 24.08412842 63.30029297 23.03393555 C63.41607951 19.93526722 63.53888408 16.83691616 63.66186523 13.73852539 C63.70118164 12.65829102 63.74049805 11.57805664 63.78100586 10.46508789 C63.82290039 9.43383789 63.86479492 8.40258789 63.90795898 7.34008789 C63.9446167 6.3869873 63.98127441 5.43388672 64.01904297 4.4519043 C64.22436523 2.11352539 64.22436523 2.11352539 65.22436523 0.11352539 C69.0991098 -0.00315675 72.97339919 -0.07388692 76.84936523 -0.13647461 C78.49098633 -0.18674805 78.49098633 -0.18674805 80.16577148 -0.23803711 C86.5108192 -0.31494678 90.43490573 -0.22364114 95.22436523 4.11352539 C97.39550867 6.85105407 97.22444268 8.11205395 97.03686523 11.67602539 C96.21496025 15.1533157 95.75245635 15.87163327 93.22436523 18.11352539 C93.65749023 18.7284082 94.09061523 19.34329102 94.53686523 19.97680664 C95.09374023 20.78504883 95.65061523 21.59329102 96.22436523 22.42602539 C96.78124023 23.2265332 97.33811523 24.02704102 97.91186523 24.85180664 C99.22436523 27.11352539 99.22436523 27.11352539 99.22436523 30.11352539 C95.12834459 30.58388183 91.29959915 30.82922833 87.22436523 30.11352539 C85.33727559 28.21342134 84.44462788 26.44199202 83.31420898 24.02758789 C82.25890056 21.7382954 82.25890056 21.7382954 78.91186523 20.61352539 C78.02499023 20.44852539 77.13811523 20.28352539 76.22436523 20.11352539 C76.22436523 23.41352539 76.22436523 26.71352539 76.22436523 30.11352539 C68.30436523 30.11352539 60.38436523 30.11352539 52.22436523 30.11352539 C51.56436523 28.46352539 50.90436523 26.81352539 50.22436523 25.11352539 C46.59436523 25.11352539 42.96436523 25.11352539 39.22436523 25.11352539 C38.56436523 26.76352539 37.90436523 28.41352539 37.22436523 30.11352539 C23.69436523 30.11352539 10.16436523 30.11352539 -3.77563477 30.11352539 C-3.79625977 25.34915039 -3.81688477 20.58477539 -3.83813477 15.67602539 C-3.84723877 14.17112549 -3.85634277 12.66622559 -3.86572266 11.11572266 C-3.86822021 9.94066162 -3.87071777 8.76560059 -3.87329102 7.55493164 C-3.87852783 6.34522705 -3.88376465 5.13552246 -3.88916016 3.88916016 C-3.73650993 0.15694421 -3.73221595 0.15265023 0 0 Z M76.22436523 8.11352539 C76.22436523 9.43352539 76.22436523 10.75352539 76.22436523 12.11352539 C78.86436523 12.11352539 81.50436523 12.11352539 84.22436523 12.11352539 C84.22436523 10.79352539 84.22436523 9.47352539 84.22436523 8.11352539 C81.58436523 8.11352539 78.94436523 8.11352539 76.22436523 8.11352539 Z M44.22436523 13.11352539 C43.89436523 14.43352539 43.56436523 15.75352539 43.22436523 17.11352539 C44.21436523 17.11352539 45.20436523 17.11352539 46.22436523 17.11352539 C45.56436523 15.79352539 44.90436523 14.47352539 44.22436523 13.11352539 Z " fill="#030303" transform="translate(116.775634765625,302.886474609375)"/>
<path d="M0 0 C0.66 0 1.32 0 2 0 C4.44093821 6.80659105 6.85956899 13.62081415 9.26318359 20.44067383 C10.08266431 22.75757519 10.90714966 25.07271297 11.73681641 27.38598633 C12.93165586 30.72020518 14.10808043 34.06044806 15.28125 37.40234375 C15.65310425 38.42770737 16.0249585 39.45307098 16.40808105 40.50950623 C18.50929774 46.5617576 19.53586575 51.61126829 19 58 C18.94849792 58.71770065 18.89699585 59.43540131 18.84393311 60.17485046 C18.66130775 62.4103023 18.43569291 64.63723821 18.1953125 66.8671875 C18.11127167 67.66859161 18.02723083 68.46999573 17.94064331 69.29568481 C17.76318654 70.97147458 17.5832403 72.64700249 17.40087891 74.32226562 C17.12355101 76.88840765 16.86029346 79.45575527 16.59765625 82.0234375 C16.42272546 83.65894535 16.24697371 85.29436565 16.0703125 86.9296875 C15.99313995 87.69529999 15.91596741 88.46091248 15.8364563 89.24972534 C15.42950565 92.87208348 15.05858996 94.91211506 13 98 C9.92434108 93.43113745 8.26203561 88.55433653 6.4609375 83.39453125 C5.97145126 82.01390755 5.97145126 82.01390755 5.47207642 80.60539246 C4.4345984 77.67620818 3.40452705 74.74448719 2.375 71.8125 C1.33689704 68.87032799 0.29727743 65.92869956 -0.74349976 62.98747253 C-1.38976433 61.15961292 -2.03420751 59.33110811 -2.67666626 57.50190735 C-2.96721893 56.67732529 -3.25777161 55.85274323 -3.55712891 55.00317383 C-3.81233307 54.27657059 -4.06753723 53.54996735 -4.33047485 52.80134583 C-4.98660025 50.93714806 -4.98660025 50.93714806 -6 49 C-5.82892694 46.02155973 -5.5904429 43.08360566 -5.29296875 40.1171875 C-5.16478508 38.78483566 -5.16478508 38.78483566 -5.03401184 37.42556763 C-4.85103305 35.54058757 -4.66504828 33.6558973 -4.47631836 31.77148438 C-4.19082432 28.90833875 -3.91796507 26.04419167 -3.64648438 23.1796875 C-3.46691237 21.34627893 -3.28659693 19.51294299 -3.10546875 17.6796875 C-2.98500435 16.40579666 -2.98500435 16.40579666 -2.86210632 15.10617065 C-2.33070223 9.90590775 -1.3827506 5.04288745 0 0 Z " fill="#3F43B8" transform="translate(217,171)"/>
<path d="M0 0 C3.25031914 2.61438713 5.51548893 5.10486086 7 9 C7.07342802 13.69327397 6.49324543 18.33571798 6 23 C5.89816406 24.15242188 5.79632813 25.30484375 5.69140625 26.4921875 C4.67395041 35.40803767 1.94385154 41.24853146 -4.5625 47.4375 C-10.42364608 51.19464492 -15.18044739 51.23835329 -22 51 C-22.495 49.515 -22.495 49.515 -23 48 C-22.34 48 -21.68 48 -21 48 C-21.020625 46.9275 -21.04125 45.855 -21.0625 44.75 C-21 41 -21 41 -20.52514648 39.11645508 C-19.88363075 36.5310065 -19.71333662 34.04459404 -19.53515625 31.38671875 C-19.45716797 30.30326172 -19.37917969 29.21980469 -19.29882812 28.10351562 C-19.14210137 25.83810167 -18.98842264 23.57247464 -18.83789062 21.30664062 C-17.81189649 7.23467234 -17.81189649 7.23467234 -14.125 2.6875 C-9.4792333 -1.00178532 -5.85112041 -1.8146616 0 0 Z " fill="#B961C7" transform="translate(301,221)"/>
<path d="M0 0 C4.20900401 1.40300134 5.18946378 4.35241675 7.1875 8.0625 C7.77253296 9.12549316 7.77253296 9.12549316 8.36938477 10.20996094 C12.45582709 17.70108405 16.24935059 25.33680264 20 33 C20.39960938 33.71800781 20.79921875 34.43601563 21.2109375 35.17578125 C25.3815489 44.81773928 21.03823883 61.12542548 19 71 C15.17411229 69.53752192 14.0090888 67.77090853 12.1953125 64.16015625 C11.44314453 62.68772461 11.44314453 62.68772461 10.67578125 61.18554688 C10.16402344 60.15494141 9.65226562 59.12433594 9.125 58.0625 C8.10781998 56.05285405 7.0895927 54.04373782 6.0703125 52.03515625 C5.32056152 50.53722534 5.32056152 50.53722534 4.55566406 49.0090332 C2.53944757 45.10917943 0.33860328 41.32417151 -1.90283203 37.54980469 C-3.83090152 33.06899522 -3.00261223 28.84909426 -2.28955078 24.140625 C-1.66315974 19.50976781 -1.33937374 14.84216537 -0.9375 10.1875 C-0.76048931 8.24336393 -0.58220999 6.29934272 -0.40234375 4.35546875 C-0.32491943 3.51653076 -0.24749512 2.67759277 -0.16772461 1.81323242 C-0.11237549 1.21486572 -0.05702637 0.61649902 0 0 Z " fill="#3F43B9" transform="translate(261,198)"/>
<path d="M0 0 C4.21326006 -0.75838681 7.82114442 -1.03961773 12 0 C15.46459124 3.59057637 17.7555988 7.56400705 20 12 C20.33 8.04 20.66 4.08 21 0 C24.63 0 28.26 0 32 0 C33.3767748 2.7535496 33.12969689 4.98840409 33.1328125 8.06640625 C33.13410156 9.27361328 33.13539063 10.48082031 33.13671875 11.72460938 C33.13285156 12.99111328 33.12898438 14.25761719 33.125 15.5625 C33.13080078 17.46805664 33.13080078 17.46805664 33.13671875 19.41210938 C33.13542969 20.61802734 33.13414062 21.82394531 33.1328125 23.06640625 C33.13168457 24.17959229 33.13055664 25.29277832 33.12939453 26.43969727 C33 29 33 29 32 30 C27.82085086 30.82914319 24.15408184 31.0039458 20 30 C16.58473053 26.74538812 14.2715329 23.11548314 12 19 C11.67 22.63 11.34 26.26 11 30 C2.50390625 30.09765625 2.50390625 30.09765625 0 30 C-1.79829077 28.20170923 -1.13035658 25.49022841 -1.1328125 23.06640625 C-1.13410156 21.86048828 -1.13539063 20.65457031 -1.13671875 19.41210938 C-1.13285156 18.14173828 -1.12898437 16.87136719 -1.125 15.5625 C-1.12886719 14.29599609 -1.13273438 13.02949219 -1.13671875 11.72460938 C-1.13542969 10.51740234 -1.13414062 9.31019531 -1.1328125 8.06640625 C-1.13168457 6.95209229 -1.13055664 5.83777832 -1.12939453 4.68969727 C-1 2 -1 2 0 0 Z " fill="#030304" transform="translate(218,303)"/>
<path d="M0 0 C3.66172445 0.00476167 5.2817418 0.11544666 8.08984375 2.52734375 C9.85149763 4.82531509 11.39993364 7.13501918 12.875 9.625 C13.865 11.11 13.865 11.11 14.875 12.625 C15.205 8.665 15.535 4.705 15.875 0.625 C19.505 0.625 23.135 0.625 26.875 0.625 C26.875 10.525 26.875 20.425 26.875 30.625 C14.875 30.625 14.875 30.625 11.953125 28.21875 C11.34984375 27.1978125 10.7465625 26.176875 10.125 25.125 C9.49078125 24.1040625 8.8565625 23.083125 8.203125 22.03125 C7.76484375 21.2371875 7.3265625 20.443125 6.875 19.625 C6.545 23.255 6.215 26.885 5.875 30.625 C1.915 30.625 -2.045 30.625 -6.125 30.625 C-6.14965746 26.5132744 -6.16783959 22.40157722 -6.17993164 18.28979492 C-6.1849708 16.89004772 -6.19180216 15.4903058 -6.20043945 14.09057617 C-6.2125232 12.08254223 -6.21769807 10.07447043 -6.22265625 8.06640625 C-6.22789307 6.85670166 -6.23312988 5.64699707 -6.23852539 4.40063477 C-6.05094535 -0.18559638 -4.20294685 0.30920862 0 0 Z " fill="#040404" transform="translate(283.125,302.375)"/>
<path d="M0 0 C2.93092713 1.74608425 4.45416474 2.69607447 5.9375 5.75 C6.0625 8.9375 6.0625 8.9375 5.9375 11.75 C6.4325 12.245 6.4325 12.245 6.9375 12.75 C7.53151484 17.37552541 7.34859347 20.89619049 5.3125 25.125 C1.85972402 28.94122608 -1.37381772 30.55426637 -6.5 31.1484375 C-7.675625 31.14070313 -8.85125 31.13296875 -10.0625 31.125 C-11.238125 31.13273437 -12.41375 31.14046875 -13.625 31.1484375 C-18.66834935 30.56386746 -21.93511602 28.96879349 -25.375 25.25 C-28.51194372 20.60267597 -28.66919523 16.18387906 -28.0625 10.75 C-26.77508179 6.07593388 -24.77851875 2.75326114 -20.5625 0.25 C-14.2069743 -2.42288464 -6.43862037 -2.46904722 0 0 Z M-13.8125 8.75 C-16.32568684 11.61353275 -16.32568684 11.61353275 -16.625 15.3125 C-16.29863345 18.75368273 -16.29863345 18.75368273 -14.4375 21.25 C-12.08080013 23.05224737 -12.08080013 23.05224737 -8.875 22.625 C-7.4828125 22.191875 -7.4828125 22.191875 -6.0625 21.75 C-5.7325 21.09 -5.4025 20.43 -5.0625 19.75 C-7.0425 19.75 -9.0225 19.75 -11.0625 19.75 C-10.7325 17.11 -10.4025 14.47 -10.0625 11.75 C-7.7525 11.75 -5.4425 11.75 -3.0625 11.75 C-4.91348018 9.70070051 -6.56857372 8.0208628 -9 6.6875 C-11.35083727 6.56488886 -11.35083727 6.56488886 -13.8125 8.75 Z " fill="#030303" transform="translate(341.0625,303.25)"/>
<path d="M0 0 C3.63 0 7.26 0 11 0 C11 3.63 11 7.26 11 11 C15.28734614 8.85632693 15.54770775 8.35405679 17.5625 4.375 C19.07421875 1.93359375 19.07421875 1.93359375 21 0 C24.77576707 -0.78640114 28.20016397 -0.5476632 32 0 C31.68383092 6.16529701 28.50784939 10.17268433 25 15 C25.5775 15.680625 26.155 16.36125 26.75 17.0625 C33 25.22222222 33 25.22222222 33 30 C28.90207437 30.47057519 25.07758358 30.71052822 21 30 C18.43888391 27.70599417 17.11648017 25.23259955 16 22 C16 21.34 16 20.68 16 20 C14.35 19.67 12.7 19.34 11 19 C11 22.63 11 26.26 11 30 C2.50390625 30.09765625 2.50390625 30.09765625 0 30 C-1.79829077 28.20170923 -1.13035658 25.49022841 -1.1328125 23.06640625 C-1.13410156 21.86048828 -1.13539063 20.65457031 -1.13671875 19.41210938 C-1.13285156 18.14173828 -1.12898438 16.87136719 -1.125 15.5625 C-1.12886719 14.29599609 -1.13273437 13.02949219 -1.13671875 11.72460938 C-1.13542969 10.51740234 -1.13414062 9.31019531 -1.1328125 8.06640625 C-1.13168457 6.95209229 -1.13055664 5.83777832 -1.12939453 4.68969727 C-1 2 -1 2 0 0 Z " fill="#030303" transform="translate(351,303)"/>
<path d="M0 0 C0.9075 0.00257813 1.815 0.00515625 2.75 0.0078125 C4.11125 0.00394531 4.11125 0.00394531 5.5 0 C7.75 0.1328125 7.75 0.1328125 8.75 1.1328125 C8.90655027 2.61920242 9.00066943 4.11230377 9.06640625 5.60546875 C9.12924805 6.95415039 9.12924805 6.95415039 9.19335938 8.33007812 C9.23267578 9.27560547 9.27199219 10.22113281 9.3125 11.1953125 C9.35568359 12.14470703 9.39886719 13.09410156 9.44335938 14.07226562 C9.54979276 16.42562603 9.65181008 18.77909604 9.75 21.1328125 C12.65073181 21.81082284 12.65073181 21.81082284 15.75 22.1328125 C18.18914492 19.69366758 18.03662523 18.91834819 18.1640625 15.5625 C18.20273437 14.66660156 18.24140625 13.77070313 18.28125 12.84765625 C18.3121875 11.91050781 18.343125 10.97335937 18.375 10.0078125 C18.41367187 9.06292969 18.45234375 8.11804688 18.4921875 7.14453125 C18.5866082 4.807619 18.66939898 2.4702422 18.75 0.1328125 C22.38 0.1328125 26.01 0.1328125 29.75 0.1328125 C29.8582077 3.84193192 29.93742278 7.54787706 30 11.2578125 C30.03351563 12.30453125 30.06703125 13.35125 30.1015625 14.4296875 C30.17767645 20.4426895 30.14602149 24.57231402 25.75 29.1328125 C21.77277725 31.48515279 17.86796112 31.46193676 13.3125 31.5078125 C12.03503906 31.53617187 10.75757813 31.56453125 9.44140625 31.59375 C4.22538011 30.94243668 1.3555525 28.92725353 -2.109375 25.0546875 C-3.87104708 20.54191107 -3.60354453 16.17821839 -3.5 11.3828125 C-3.49484375 10.41214844 -3.4896875 9.44148438 -3.484375 8.44140625 C-3.39216606 0.20023202 -3.39216606 0.20023202 0 0 Z " fill="#030303" transform="translate(388.25,302.8671875)"/>
<path d="M0 0 C7.26 0 14.52 0 22 0 C22 2.64 22 5.28 22 8 C20.35 8 18.7 8 17 8 C17 12.62 17 17.24 17 22 C18.65 22.33 20.3 22.66 22 23 C22 25.31 22 27.62 22 30 C14.74 30 7.48 30 0 30 C0 27.36 0 24.72 0 22 C1.65 22 3.3 22 5 22 C5 17.38 5 12.76 5 8 C3.35 8 1.7 8 0 8 C0 5.36 0 2.72 0 0 Z " fill="#030303" transform="translate(253,303)"/>
<path d="M0 0 C1.37478516 0.01740234 1.37478516 0.01740234 2.77734375 0.03515625 C3.69644531 0.04417969 4.61554688 0.05320312 5.5625 0.0625 C6.27277344 0.07410156 6.98304687 0.08570313 7.71484375 0.09765625 C8.91514283 2.49825442 8.82944118 3.99126274 8.8125 6.66796875 C8.80927734 7.56386719 8.80605469 8.45976562 8.80273438 9.3828125 C8.79435547 10.31996094 8.78597656 11.25710938 8.77734375 12.22265625 C8.77283203 13.16753906 8.76832031 14.11242187 8.76367188 15.0859375 C8.7518675 17.42320395 8.73393174 19.76043794 8.71484375 22.09765625 C13.99484375 22.09765625 19.27484375 22.09765625 24.71484375 22.09765625 C25.04484375 24.40765625 25.37484375 26.71765625 25.71484375 29.09765625 C24.71484375 30.09765625 24.71484375 30.09765625 22.03100586 30.21118164 C20.8631958 30.20594482 19.69538574 30.20070801 18.4921875 30.1953125 C17.23212891 30.19208984 15.97207031 30.18886719 14.67382812 30.18554688 C13.33333266 30.17719028 11.99283787 30.16872532 10.65234375 30.16015625 C9.30794433 30.15514285 7.96354315 30.15057967 6.61914062 30.14648438 C3.31766434 30.13465113 0.01627572 30.11816596 -3.28515625 30.09765625 C-3.30981371 25.98593065 -3.32799584 21.87423347 -3.34008789 17.76245117 C-3.34512705 16.36270397 -3.35195841 14.96296205 -3.3605957 13.56323242 C-3.37267945 11.55519848 -3.37785432 9.54712668 -3.3828125 7.5390625 C-3.38804932 6.32935791 -3.39328613 5.11965332 -3.39868164 3.87329102 C-3.24593489 0.13871517 -3.24593489 0.13871517 0 0 Z " fill="#030303" transform="translate(86.28515625,302.90234375)"/>
<path d="M0 0 C0.66 0 1.32 0 2 0 C2.73080266 1.97746603 3.39421747 3.98072489 4 6 C3.67 6.66 3.34 7.32 3 8 C3.66 8.33 4.32 8.66 5 9 C4.67 11.64 4.34 14.28 4 17 C3.34 17 2.68 17 2 17 C2.33 18.65 2.66 20.3 3 22 C3.66 22 4.32 22 5 22 C5 23.32 5 24.64 5 26 C3.35 25.67 1.7 25.34 0 25 C0.020625 25.7425 0.04125 26.485 0.0625 27.25 C0.00639992 29.71840343 -0.35920404 31.63864164 -1 34 C0.41433206 34.2236337 1.83167618 34.42826476 3.25 34.625 C4.03890625 34.74101562 4.8278125 34.85703125 5.640625 34.9765625 C8.37077368 35.00368318 9.75079804 34.52624419 12 33 C12.81171228 30.44480079 12.81171228 30.44480079 13 28 C13.66 28 14.32 28 15 28 C15.33 27.34 15.66 26.68 16 26 C16.66 26.66 17.32 27.32 18 28 C19.63888712 26.36111288 19.30137938 24.38509005 19.46484375 22.125 C19.58182617 20.64773437 19.58182617 20.64773437 19.70117188 19.140625 C19.85870224 17.04716368 20.01234966 14.95340655 20.16210938 12.859375 C20.24138672 11.87453125 20.32066406 10.8896875 20.40234375 9.875 C20.46929443 8.96492187 20.53624512 8.05484375 20.60522461 7.1171875 C20.80063843 6.06917969 20.80063843 6.06917969 21 5 C21.66 4.67 22.32 4.34 23 4 C23.20741359 10.42982121 22.86945253 16.72925129 22.25 23.125 C22.18828613 23.8763623 22.12657227 24.62772461 22.06298828 25.40185547 C21.49244733 30.82140145 20.05886828 35.43954251 17 40 C13.62850721 42.52861959 11.06537242 43.2409869 6.9375 43 C2.73711816 42.28384294 0.67044998 40.31783179 -2 37 C-6.82095692 27.35808615 -1.45200132 10.12796669 0 0 Z " fill="#D13EA9" transform="translate(187,230)"/>
<path d="M0 0 C0.33 0 0.66 0 1 0 C0.24652457 21.40909498 0.24652457 21.40909498 -8.12109375 30.30078125 C-13.28415027 34.97007353 -18.42914014 35.31294792 -25.05859375 35.10546875 C-25.69925781 35.07066406 -26.33992188 35.03585937 -27 35 C-27.495 33.515 -27.495 33.515 -28 32 C-27.34 32 -26.68 32 -26 32 C-26.04125 31.0925 -26.0825 30.185 -26.125 29.25 C-26.11063245 22.22426667 -25.75189018 14.45490955 -21 9 C-20.01 9.66 -19.02 10.32 -18 11 C-17.48420362 14.8168932 -18.41923342 17.54207311 -20 21 C-17.52971845 20.54109394 -15.06987841 20.05940102 -12.61328125 19.53125 C-10 19 -10 19 -6.5625 18.625 C-3.20188836 16.49388042 -3.16345644 14.98443528 -2.1875 11.1875 C-1.76580349 9.13013218 -1.36890947 7.06748545 -1 5 C-0.66840205 3.3329872 -0.3357021 1.66619116 0 0 Z " fill="#82A8E6" transform="translate(306,237)"/>
<path d="M0 0 C0.33 0 0.66 0 1 0 C1.52120557 6.38476826 1.1367161 10.94401366 -3 16 C-7.21732157 20.3372454 -11.28071616 23.8392902 -17.53125 24.109375 C-20.02507646 24.12338526 -22.50785547 24.08710408 -25 24 C-25.625 22.125 -25.625 22.125 -26 20 C-25.34 19.34 -24.68 18.68 -24 18 C-23.39241825 15.70642947 -23.39241825 15.70642947 -23 13.125 C-22.43033147 9.71716147 -21.68844498 7.02513059 -20 4 C-19.19032562 6.91482778 -18.78154007 8.46113217 -19.9375 11.3125 C-20.4634375 12.1478125 -20.4634375 12.1478125 -21 13 C-20.34 13 -19.68 13 -19 13 C-19 13.99 -19 14.98 -19 16 C-19.66 16 -20.32 16 -21 16 C-21 16.66 -21 17.32 -21 18 C-19.05000871 17.80528889 -19.05000871 17.80528889 -17 17 C-15.71563266 15.0162233 -15.71563266 15.0162233 -15 13 C-14.01 13 -13.02 13 -12 13 C-11.67 12.01 -11.34 11.02 -11 10 C-10.01 10.33 -9.02 10.66 -8 11 C-7.34 10.01 -6.68 9.02 -6 8 C-2.875 7.8125 -2.875 7.8125 0 8 C0 5.36 0 2.72 0 0 Z " fill="#EA27AB" transform="translate(255,248)"/>
<path d="M0 0 C0.89203125 0.01804688 1.7840625 0.03609375 2.703125 0.0546875 C3.71632812 0.08949219 3.71632812 0.08949219 4.75 0.125 C5.89931856 3.57295568 5.25019232 5.07023615 4.32421875 8.46728516 C2.87945516 15.15423094 2.6397202 22.12887919 2.07275391 28.94262695 C1.89863749 31.00793385 1.7152795 33.07227518 1.53125 35.13671875 C1.42876953 36.35834717 1.32628906 37.57997559 1.22070312 38.83862305 C0.78000473 41.91551161 0.04538358 44.3151215 -1.25 47.125 C-1.58 47.125 -1.91 47.125 -2.25 47.125 C-2.32950921 43.30855774 -2.24054509 39.71664142 -1.6875 35.9375 C-1.32580272 32.78556654 -1.16361729 31.02202057 -2.25 28.125 C-1.59 28.125 -0.93 28.125 -0.25 28.125 C0.08 24.825 0.41 21.525 0.75 18.125 C0.09 18.125 -0.57 18.125 -1.25 18.125 C-0.93289062 17.59390625 -0.61578125 17.0628125 -0.2890625 16.515625 C0.9870349 13.57964152 1.16707021 11.06325671 1.375 7.875 C1.44976562 6.79734375 1.52453125 5.7196875 1.6015625 4.609375 C1.65054688 3.78953125 1.69953125 2.9696875 1.75 2.125 C-1.11136296 2.23906002 -1.11136296 2.23906002 -4.25 3.125 C-5.62868281 4.75435241 -6.96274093 6.42249607 -8.25 8.125 C-10.9375 9.3125 -10.9375 9.3125 -13.25 10.125 C-13.58 10.785 -13.91 11.445 -14.25 12.125 C-13.59 12.785 -12.93 13.445 -12.25 14.125 C-12.58 14.785 -12.91 15.445 -13.25 16.125 C-14.58333333 16.45833333 -15.91666667 16.79166667 -17.25 17.125 C-18.32773654 19.28047309 -18.54357254 20.86807106 -18.8125 23.25 C-19.0290625 25.168125 -19.0290625 25.168125 -19.25 27.125 C-19.58 27.125 -19.91 27.125 -20.25 27.125 C-20.7269755 19.91737025 -20.70847712 14.06530334 -16.25 8.125 C-11.45086688 3.12543905 -7.11488232 -0.18723375 0 0 Z " fill="#74B0E7" transform="translate(212.25,167.875)"/>
<path d="M0 0 C0.66 0 1.32 0 2 0 C2.73080266 1.97746603 3.39421747 3.98072489 4 6 C3.67 6.66 3.34 7.32 3 8 C3.66 8.33 4.32 8.66 5 9 C4.67 11.64 4.34 14.28 4 17 C3.34 17 2.68 17 2 17 C2.33 18.65 2.66 20.3 3 22 C3.66 22 4.32 22 5 22 C5 23.32 5 24.64 5 26 C3.35 25.67 1.7 25.34 0 25 C0.020625 25.7425 0.04125 26.485 0.0625 27.25 C0.00671312 29.70462279 -0.3069904 31.66109261 -1 34 C-0.34 34.33 0.32 34.66 1 35 C1 36.32 1 37.64 1 39 C0.34 39 -0.32 39 -1 39 C-7.02634639 28.55593354 -1.60970573 11.2279829 0 0 Z " fill="#D048BA" transform="translate(187,230)"/>
<path d="M0 0 C-0.99 0.495 -0.99 0.495 -2 1 C-1.97679687 1.7734375 -1.95359375 2.546875 -1.9296875 3.34375 C-1.82071094 9.63325438 -2.14873907 14.98340199 -4 21 C-5.0625 19.1875 -5.0625 19.1875 -6 17 C-5.67 16.01 -5.34 15.02 -5 14 C-5.16442277 10.93008319 -5.16442277 10.93008319 -6 8 C-9.4352048 5.70986347 -10.985331 5.82157027 -15 6 C-15.33 7.32 -15.66 8.64 -16 10 C-16.86625 10.12375 -16.86625 10.12375 -17.75 10.25 C-20.6159304 11.20531013 -21.9990764 12.78469173 -24 15 C-24 11.68693428 -23.54757211 9.61793768 -21.328125 7.11328125 C-14.25427253 0.77074811 -9.3575215 -0.327059 0 0 Z " fill="#73BBF2" transform="translate(263,197)"/>
<path d="M0 0 C0.66 0 1.32 0 2 0 C2.8655047 2.26708325 3.71759315 4.53775079 4.5625 6.8125 C4.9327832 7.77639648 4.9327832 7.77639648 5.31054688 8.75976562 C7.11328125 13.66015625 7.11328125 13.66015625 6 17 C6 17.99 6 18.98 6 20 C5.21625 20.144375 4.4325 20.28875 3.625 20.4375 C1.03578982 20.87798925 1.03578982 20.87798925 -1 22 C-1 25.3 -1 28.6 -1 32 C-1.99 32.495 -1.99 32.495 -3 33 C-3.25628984 25.73845453 -2.8675682 18.64830002 -2.0625 11.4375 C-1.97564941 10.65197754 -1.88879883 9.86645508 -1.79931641 9.05712891 C-1.42846331 5.90042191 -1.00789798 3.02369394 0 0 Z " fill="#4C45D1" transform="translate(217,171)"/>
<path d="M0 0 C3 1 3 1 4.38671875 3.07421875 C8.84751309 12.03599476 8.84751309 12.03599476 8 17 C6 20 6 20 3.375 20.6875 C2.59125 20.790625 1.8075 20.89375 1 21 C0.67 22.65 0.34 24.3 0 26 C-0.33 26 -0.66 26 -1 26 C-1.11624638 17.26860536 -0.89115181 8.68873018 0 0 Z " fill="#4B41D7" transform="translate(261,198)"/>
<path d="M0 0 C0.33 0.66 0.66 1.32 1 2 C3.97 2 6.94 2 10 2 C9.9375 4.3125 9.9375 4.3125 9 7 C3.50273613 10.43578992 -0.76308891 10.17384041 -7 9 C-6.34 7.02 -5.68 5.04 -5 3 C-4.01 3 -3.02 3 -2 3 C-1.34 2.01 -0.68 1.02 0 0 Z " fill="#7AB2ED" transform="translate(287,262)"/>
<path d="M0 0 C3 2.1875 3 2.1875 5 5 C5.3125 8.3125 5.3125 8.3125 5 11 C4.01 10.34 3.02 9.68 2 9 C2.33 7.68 2.66 6.36 3 5 C2.34 5 1.68 5 1 5 C1 4.34 1 3.68 1 3 C-4.16852838 2.50221783 -4.16852838 2.50221783 -8.8125 4.1875 C-9.76019751 5.63398568 -10.64203082 7.12355394 -11.5 8.625 C-13 11 -13 11 -16 12 C-16.48877805 5.64588529 -16.48877805 5.64588529 -14.25 2.6875 C-9.46153733 -0.903847 -5.94818811 -1.81390291 0 0 Z " fill="#EB25A7" transform="translate(301,221)"/>
<path d="M0 0 C0.33 0 0.66 0 1 0 C1.23386385 11.51129844 0.32845368 22.71943315 -2 34 C-6.18178076 32.20287108 -7.24709406 30.20697425 -9 26 C-9 25.34 -9 24.68 -9 24 C-4.61538462 21 -4.61538462 21 -2 21 C-2.02320313 19.98679688 -2.04640625 18.97359375 -2.0703125 17.9296875 C-2.0890841 16.57813242 -2.1072828 15.22656931 -2.125 13.875 C-2.14175781 13.20984375 -2.15851563 12.5446875 -2.17578125 11.859375 C-2.21847278 7.50483944 -1.59996217 4.04399886 0 0 Z " fill="#5243D5" transform="translate(282,235)"/>
<path d="M0 0 C0.33 0 0.66 0 1 0 C0.89013032 3.27152618 0.7595003 6.54190114 0.625 9.8125 C0.57859375 11.2056543 0.57859375 11.2056543 0.53125 12.62695312 C0.47324219 13.9659668 0.47324219 13.9659668 0.4140625 15.33203125 C0.3826416 16.15421143 0.3512207 16.9763916 0.31884766 17.82348633 C0 20 0 20 -2 23 C-6.583573 16.01550781 -8.44452906 9.27460159 -9 1 C-6.20766929 3.55277419 -5.51032394 5.22360282 -5 9 C-4.01 9.33 -3.02 9.66 -2 10 C-1.855625 8.72125 -1.71125 7.4425 -1.5625 6.125 C-1.29357254 3.74307106 -1.07773654 2.15547309 0 0 Z " fill="#5837D9" transform="translate(232,246)"/>
<path d="M0 0 C0.66 0.33 1.32 0.66 2 1 C2 3.31 2 5.62 2 8 C1.01 8 0.02 8 -1 8 C-1 8.99 -1 9.98 -1 11 C-9.19256018 11.63019694 -9.19256018 11.63019694 -12.5625 9 C-13.2740625 8.01 -13.2740625 8.01 -14 7 C-13.67 6.01 -13.34 5.02 -13 4 C-11.9275 4.20625 -10.855 4.4125 -9.75 4.625 C-5.48227428 5.05585979 -5.48227428 5.05585979 -2 3 C-1.34 2.01 -0.68 1.02 0 0 Z " fill="#F21DAA" transform="translate(201,260)"/>
<path d="M0 0 C1.32 0.66 2.64 1.32 4 2 C4.22036864 5.85645121 3.60355101 8.49223216 2 12 C2.66 12.33 3.32 12.66 4 13 C2.1875 15 2.1875 15 0 17 C-0.99 17 -1.98 17 -3 17 C-3.16677282 20.41656024 -3.16677282 20.41656024 -3 24 C-2.34 24.66 -1.68 25.32 -1 26 C-2.32 26 -3.64 26 -5 26 C-5.33 25.01 -5.66 24.02 -6 23 C-5.34 23 -4.68 23 -4 23 C-4.04125 22.0925 -4.0825 21.185 -4.125 20.25 C-4.125 13.47702814 -3.38074343 5.95181301 0 0 Z " fill="#838EE8" transform="translate(284,246)"/>
<path d="M0 0 C0.66 1.32 1.32 2.64 2 4 C1.01 5.485 1.01 5.485 0 7 C-0.45772063 9.73872955 -0.45772063 9.73872955 -0.625 12.6875 C-0.69976562 13.68136719 -0.77453125 14.67523438 -0.8515625 15.69921875 C-0.90054688 16.45847656 -0.94953125 17.21773438 -1 18 C-0.34 17.67 0.32 17.34 1 17 C3.3329866 16.95977609 5.66706666 16.95679753 8 17 C8.66 15.68 9.32 14.36 10 13 C10 13.66 10 14.32 10 15 C11.32 15.33 12.64 15.66 14 16 C7.72912263 19.71607548 3.24539726 20.53449652 -4 20 C-4.625 18.125 -4.625 18.125 -5 16 C-4.34 15.34 -3.68 14.68 -3 14 C-2.35482176 11.70811149 -2.35482176 11.70811149 -1.9375 9.125 C-1.38222823 6.05035468 -0.79430134 3.02256262 0 0 Z " fill="#CC2FB0" transform="translate(234,252)"/>
<path d="M0 0 C0.33 0 0.66 0 1 0 C0.2777308 20.52240756 0.2777308 20.52240756 -4.6015625 25.69921875 C-5.06304687 26.12847656 -5.52453125 26.55773437 -6 27 C-6.0928125 26.071875 -6.0928125 26.071875 -6.1875 25.125 C-6.828919 22.72238859 -6.828919 22.72238859 -9.5625 21.75 C-10.366875 21.5025 -11.17125 21.255 -12 21 C-9.34262343 18.81715496 -7.34430737 17.72366315 -4 17 C-3.51933465 15.10454608 -3.04053257 13.20861961 -2.5625 11.3125 C-2.29566406 10.25675781 -2.02882813 9.20101562 -1.75390625 8.11328125 C-1.10102068 5.4171683 -0.52058807 2.7242424 0 0 Z " fill="#88A0E0" transform="translate(306,237)"/>
<path d="M0 0 C0.99 0 1.98 0 3 0 C3 0.99 3 1.98 3 3 C3.66 3 4.32 3 5 3 C5 4.32 5 5.64 5 7 C3.35 6.67 1.7 6.34 0 6 C0.020625 6.7425 0.04125 7.485 0.0625 8.25 C0.00671312 10.70462279 -0.3069904 12.66109261 -1 15 C-0.34 15.33 0.32 15.66 1 16 C1 17.32 1 18.64 1 20 C0.34 20 -0.32 20 -1 20 C-3.10022886 16.56326187 -3.24140313 13.86383187 -3.1875 9.875 C-3.18105469 8.82054687 -3.17460937 7.76609375 -3.16796875 6.6796875 C-3 4 -3 4 -2 2 C-1.34 2 -0.68 2 0 2 C0 1.34 0 0.68 0 0 Z " fill="#DD37B3" transform="translate(187,249)"/>
<path d="M0 0 C2.99358859 2.58005983 4.45566888 5.54324813 6.1875 9.0625 C6.71730469 10.12597656 7.24710937 11.18945312 7.79296875 12.28515625 C9 15 9 15 9 17 C8.34 17 7.68 17 7 17 C6.6596875 15.7934375 6.6596875 15.7934375 6.3125 14.5625 C5.24943622 11.78485233 5.24943622 11.78485233 2.5625 11.0625 C-0.24528606 10.74837398 -0.24528606 10.74837398 -3 13 C-2.6875 10.625 -2.6875 10.625 -2 8 C-1.01 7.34 -0.02 6.68 1 6 C0.67 4.02 0.34 2.04 0 0 Z " fill="#3B48AA" transform="translate(273,218)"/>
<path d="M0 0 C0.33 0 0.66 0 1 0 C-0.13432836 27.13432836 -0.13432836 27.13432836 -4 31 C-4.07950921 27.18355774 -3.99054509 23.59164142 -3.4375 19.8125 C-3.07580272 16.66056654 -2.91361729 14.89702057 -4 12 C-3.34 12 -2.68 12 -2 12 C-1.90912109 11.07767578 -1.90912109 11.07767578 -1.81640625 10.13671875 C-1.69072266 8.92435547 -1.69072266 8.92435547 -1.5625 7.6875 C-1.48128906 6.88699219 -1.40007812 6.08648437 -1.31640625 5.26171875 C-1 3 -1 3 0 0 Z " fill="#8C7DDD" transform="translate(214,184)"/>
<path d="M0 0 C0.33 0 0.66 0 1 0 C1.22304441 1.74818591 1.4278645 3.49870323 1.625 5.25 C1.74101562 6.22453125 1.85703125 7.1990625 1.9765625 8.203125 C2.00167477 11.19985597 1.44882043 12.44578325 0 15 C-0.165 16.155 -0.33 17.31 -0.5 18.5 C-0.94538933 21.61772533 -1.53660888 23.30924859 -3 26 C-2.88928305 22.79100859 -2.75885687 19.58310291 -2.625 16.375 C-2.5940625 15.47136719 -2.563125 14.56773437 -2.53125 13.63671875 C-2.31706465 8.74615328 -1.87645845 4.59198368 0 0 Z " fill="#8A9BDD" transform="translate(238,210)"/>
<path d="M0 0 C0.33 0 0.66 0 1 0 C1.54133971 6.63141145 0.89897323 10.54143747 -3 16 C-3.99 16.66 -4.98 17.32 -6 18 C-6.144375 17.401875 -6.28875 16.80375 -6.4375 16.1875 C-6.8872439 14.43849596 -7.42892341 12.71322977 -8 11 C-7.34 10.01 -6.68 9.02 -6 8 C-2.875 7.8125 -2.875 7.8125 0 8 C0 5.36 0 2.72 0 0 Z " fill="#DE32AD" transform="translate(255,248)"/>
<path d="M0 0 C2.80088041 2.80088041 2.34086162 5.55791981 2.4375 9.3125 C2.59671814 14.55642644 3.03494684 17.65916218 6 22 C6 22.66 6 23.32 6 24 C6.66 24 7.32 24 8 24 C7.67 24.66 7.34 25.32 7 26 C3.71699716 23.58094527 1.51573082 21.80634301 0 18 C-0.22705078 15.89355469 -0.22705078 15.89355469 -0.1953125 13.671875 C-0.18886719 12.87265625 -0.18242187 12.0734375 -0.17578125 11.25 C-0.15902344 10.425 -0.14226562 9.6 -0.125 8.75 C-0.11597656 7.90953125 -0.10695313 7.0690625 -0.09765625 6.203125 C-0.07415817 4.13529396 -0.03828908 2.06761005 0 0 Z " fill="#090909" transform="translate(385,307)"/>
<path d="M0 0 C0 3.20395416 -0.74335022 5.09399739 -2 8 C-1.01 8.33 -0.02 8.66 1 9 C0.67 9.66 0.34 10.32 0 11 C-1.33333333 11.33333333 -2.66666667 11.66666667 -4 12 C-5.07773654 14.15547309 -5.29357254 15.74307106 -5.5625 18.125 C-5.7790625 20.043125 -5.7790625 20.043125 -6 22 C-6.33 22 -6.66 22 -7 22 C-7.48019688 14.74369165 -7.28626358 9.07817979 -3 3 C-2.02473842 1.97585897 -1.03052354 0.96851496 0 0 Z " fill="#83ABDD" transform="translate(199,173)"/>
<path d="M0 0 C2 3.75 2 3.75 2 6 C2.66 6 3.32 6 4 6 C3.938125 6.99 3.87625 7.98 3.8125 9 C3.78951915 12.79184 4.89409495 15.60320755 6.33203125 19.06640625 C7.25799308 21.74682208 7.21029239 24.1961014 7 27 C4.81028178 23.71542266 3.72846405 20.66395444 2.4375 16.9375 C0.91146055 12.39036534 0.91146055 12.39036534 -1 8 C-0.83219837 5.30434798 -0.38844355 2.67594446 0 0 Z " fill="#464B9E" transform="translate(212,212)"/>
<path d="M0 0 C0.99 0 1.98 0 3 0 C3 0.99 3 1.98 3 3 C2.34 3 1.68 3 1 3 C1 3.66 1 4.32 1 5 C2.98 4.34 4.96 3.68 7 3 C7.66 4.65 8.32 6.3 9 8 C4.545 8.495 4.545 8.495 0 9 C0 6.03 0 3.06 0 0 Z " fill="#F11FA9" transform="translate(233,261)"/>
<path d="M0 0 C0.66 0.33 1.32 0.66 2 1 C0.75 4.4375 0.75 4.4375 -1 8 C-2.9375 8.6875 -2.9375 8.6875 -5 9 C-7.22977996 10.97901574 -7.22977996 10.97901574 -9 13 C-9 9.5601241 -8.53558242 7.56728708 -6.15234375 5.04296875 C-4.14191738 3.30201752 -2.10706247 1.62229411 0 0 Z " fill="#7FB6E6" transform="translate(248,199)"/>
<path d="M0 0 C4.83293527 0.07922845 7.06905743 0.32118771 11 3.1875 C13.3204188 6.45058894 13.45535252 8.08396832 13 12 C12.01 11.34 11.02 10.68 10 10 C10.33 8.68 10.66 7.36 11 6 C10.34 6 9.68 6 9 6 C9 5.34 9 4.68 9 4 C5.37 3.34 1.74 2.68 -2 2 C-1.34 1.34 -0.68 0.68 0 0 Z " fill="#E051B2" transform="translate(293,220)"/>
<path d="M0 0 C1.32 0.66 2.64 1.32 4 2 C4.20140476 5.62528568 3.85776765 7.86501708 2 11 C0.68 10.67 -0.64 10.34 -2 10 C-2.17942163 6.05272412 -2.09350689 3.4019487 0 0 Z " fill="#9D84DD" transform="translate(284,246)"/>
<path d="M0 0 C0.66 0 1.32 0 2 0 C4.48887372 4.68493876 3.85687773 7.9444214 3 13 C2.01 13 1.02 13 0 13 C0 8.71 0 4.42 0 0 Z " fill="#4E35E6" transform="translate(217,175)"/>
<path d="M0 0 C0.33 0 0.66 0 1 0 C1.84810121 4.52320643 2.02806202 8.20535199 1.31640625 12.80859375 C0.83309853 16.15594723 0.62425214 19.52623657 0.37890625 22.8984375 C0 25 0 25 -2 27 C-2.10064005 20.71628693 -1.75941669 14.67190051 -1 8.4375 C-0.90460938 7.61958984 -0.80921875 6.80167969 -0.7109375 5.95898438 C-0.47855491 3.97211325 -0.23994484 1.98597206 0 0 Z " fill="#948ACA" transform="translate(191,190)"/>
<path d="M0 0 C1.18224668 3.54674003 0.89329634 5.97522995 0.5625 9.6875 C0.40974609 11.45673828 0.40974609 11.45673828 0.25390625 13.26171875 C0.12822266 14.61716797 0.12822266 14.61716797 0 16 C-0.66 16 -1.32 16 -2 16 C-2.33 12.37 -2.66 8.74 -3 5 C-2.34 5 -1.68 5 -1 5 C-0.67 3.35 -0.34 1.7 0 0 Z " fill="#A067B7" transform="translate(211,218)"/>
<path d="M0 0 C3.3 0 6.6 0 10 0 C9.01 0.495 9.01 0.495 8 1 C8.02320313 1.7734375 8.04640625 2.546875 8.0703125 3.34375 C8.17928906 9.63325438 7.85126093 14.98340199 6 21 C4.875 19.375 4.875 19.375 4 17 C4.62335603 14.98608051 5.30028027 12.98867713 6 11 C6.46275481 7.67612675 6.74872298 4.34595192 7 1 C4.69 1 2.38 1 0 1 C0 0.67 0 0.34 0 0 Z " fill="#839DE8" transform="translate(253,197)"/>
<path d="M0 0 C0.33 0 0.66 0 1 0 C0.88525534 2.54250021 0.7585303 5.08347338 0.625 7.625 C0.5940625 8.33785156 0.563125 9.05070313 0.53125 9.78515625 C0.28979845 14.17152608 -0.39342731 17.8594834 -2 22 C-2.33 22 -2.66 22 -3 22 C-2.55761615 14.46783285 -1.86094772 7.3197277 0 0 Z " fill="#9187BF" transform="translate(306,237)"/>
<path d="M0 0 C1.98 0 3.96 0 6 0 C6.33 1.32 6.66 2.64 7 4 C5.35 4.33 3.7 4.66 2 5 C1.67 6.65 1.34 8.3 1 10 C0.67 10 0.34 10 0 10 C0 6.7 0 3.4 0 0 Z " fill="#463CCE" transform="translate(260,214)"/>
<path d="M0 0 C0.66 0 1.32 0 2 0 C1.54803755 1.60597325 1.08817673 3.20972508 0.625 4.8125 C0.36976563 5.70582031 0.11453125 6.59914063 -0.1484375 7.51953125 C-1 10 -1 10 -3 13 C-3.66 13 -4.32 13 -5 13 C-4.54803755 11.39402675 -4.08817673 9.79027492 -3.625 8.1875 C-3.36976563 7.29417969 -3.11453125 6.40085937 -2.8515625 5.48046875 C-2 3 -2 3 0 0 Z " fill="#0A0A0A" transform="translate(151,312)"/>
<path d="M0 0 C0.33 0 0.66 0 1 0 C1.99459989 7.86093409 2.53505014 13.78849772 -1 21 C-1.86688859 18.10089716 -2.0458562 15.88547169 -1.66015625 12.890625 C-1.56669922 12.13652344 -1.47324219 11.38242188 -1.37695312 10.60546875 C-1.22129883 9.43951172 -1.22129883 9.43951172 -1.0625 8.25 C-0.96259766 7.45722656 -0.86269531 6.66445312 -0.75976562 5.84765625 C-0.51307129 3.89759629 -0.2574122 1.94867414 0 0 Z " fill="#A14ECD" transform="translate(234,237)"/>
<path d="M0 0 C1.32 0 2.64 0 4 0 C3 3 3 3 0.9375 4.25 C-3.1473713 5.29294586 -5.86453882 4.88132779 -10 4 C-10.66 3.01 -11.32 2.02 -12 1 C-6.06 1.99 -6.06 1.99 0 3 C0 2.01 0 1.02 0 0 Z " fill="#DE3FA0" transform="translate(200,268)"/>
<path d="M0 0 C0.33 0 0.66 0 1 0 C1.19286332 5.49660457 0.90303246 9.81952275 -1 15 C-1.99 15.495 -1.99 15.495 -3 16 C-3.33 14.68 -3.66 13.36 -4 12 C-3.34 12 -2.68 12 -2 12 C-1.90912109 11.07767578 -1.90912109 11.07767578 -1.81640625 10.13671875 C-1.69072266 8.92435547 -1.69072266 8.92435547 -1.5625 7.6875 C-1.48128906 6.88699219 -1.40007812 6.08648437 -1.31640625 5.26171875 C-1 3 -1 3 0 0 Z " fill="#8893EE" transform="translate(214,184)"/>
<path d="M0 0 C0.66 0 1.32 0 2 0 C2.2361959 6.40353322 1.823321 11.84629161 0 18 C-0.99 17.67 -1.98 17.34 -3 17 C-2.68289062 16.47921875 -2.36578125 15.9584375 -2.0390625 15.421875 C-0.71079489 12.32591291 -0.57635753 9.60595879 -0.375 6.25 C-0.30023438 5.07953125 -0.22546875 3.9090625 -0.1484375 2.703125 C-0.09945312 1.81109375 -0.05046875 0.9190625 0 0 Z " fill="#7EADF4" transform="translate(214,169)"/>
<path d="M0 0 C0.33 0 0.66 0 1 0 C1.11269443 6.1105424 0.89604368 11.95170514 0 18 C-0.33 18 -0.66 18 -1 18 C-2.51708428 5.33029613 -2.51708428 5.33029613 0 0 Z " fill="#533DBD" transform="translate(282,235)"/>
<path d="M0 0 C2.9579797 3.79858519 4 6.16075658 4 11 C3.01 11.66 2.02 12.32 1 13 C-0.00496852 9.98509443 -0.10335303 7.95818308 -0.0625 4.8125 C-0.05347656 3.91144531 -0.04445313 3.01039063 -0.03515625 2.08203125 C-0.02355469 1.39496094 -0.01195312 0.70789063 0 0 Z " fill="#CB44B7" transform="translate(284,228)"/>
<path d="M0 0 C0.99 0 1.98 0 3 0 C2.67 0.99 2.34 1.98 2 3 C1.34 3 0.68 3 0 3 C0.33 3.99 0.66 4.98 1 6 C1.66 5.67 2.32 5.34 3 5 C2.1875 6.9375 2.1875 6.9375 1 9 C0.01 9.33 -0.98 9.66 -2 10 C-2.25 3.375 -2.25 3.375 0 0 Z " fill="#E036AC" transform="translate(287,223)"/>
<path d="M0 0 C0.66 0 1.32 0 2 0 C2.33 0.99 2.66 1.98 3 3 C2.01 4.485 2.01 4.485 1 6 C0.6325272 8.57648542 0.49630771 11.12536129 0.34375 13.72265625 C0 16 0 16 -2 18 C-1.34 12.06 -0.68 6.12 0 0 Z " fill="#B85EB0" transform="translate(187,230)"/>
<path d="M0 0 C2.18742014 3.2811302 2.54442806 5.33084356 3.125 9.1875 C3.37636719 10.81751953 3.37636719 10.81751953 3.6328125 12.48046875 C3.75398437 13.31191406 3.87515625 14.14335937 4 15 C3.01 15.33 2.02 15.66 1 16 C1.020625 14.845 1.04125 13.69 1.0625 12.5 C1.07007769 8.25649453 0.59974765 4.19823356 0 0 Z " fill="#3D4C9E" transform="translate(231,208)"/>
<path d="M0 0 C0.99 0.33 1.98 0.66 3 1 C2.67 1.99 2.34 2.98 2 4 C2.66 4.33 3.32 4.66 4 5 C4 5.99 4 6.98 4 8 C2.35 7.67 0.7 7.34 -1 7 C-0.67 4.69 -0.34 2.38 0 0 Z " fill="#C552BF" transform="translate(188,234)"/>
<path d="M0 0 C0.33 0 0.66 0 1 0 C1.04898438 0.78246094 1.09796875 1.56492188 1.1484375 2.37109375 C1.22320312 3.38300781 1.29796875 4.39492188 1.375 5.4375 C1.44460937 6.44683594 1.51421875 7.45617187 1.5859375 8.49609375 C1.72257813 9.32238281 1.85921875 10.14867187 2 11 C2.66 11.33 3.32 11.66 4 12 C4 13.32 4 14.64 4 16 C3.34 16 2.68 16 2 16 C-0.14336161 12.5233662 -0.21277626 9.78770805 -0.125 5.75 C-0.10695312 4.67234375 -0.08890625 3.5946875 -0.0703125 2.484375 C-0.04710937 1.66453125 -0.02390625 0.8446875 0 0 Z " fill="#D93FA5" transform="translate(184,253)"/>
<path d="M0 0 C0.33 0 0.66 0 1 0 C1.35050464 5.841744 1.16727335 9.8531808 -2 15 C-2.33 15 -2.66 15 -3 15 C-3 12.69 -3 10.38 -3 8 C-2.01 8 -1.02 8 0 8 C0 5.36 0 2.72 0 0 Z " fill="#C74AA5" transform="translate(255,248)"/>
<path d="M0 0 C0.33 0 0.66 0 1 0 C1.22370596 2.20682907 1.42830391 4.41559973 1.625 6.625 C1.74101562 7.85476562 1.85703125 9.08453125 1.9765625 10.3515625 C2.00034163 14.05318114 1.37441976 16.59017997 0 20 C-0.33 20 -0.66 20 -1 20 C-0.67 13.4 -0.34 6.8 0 0 Z " fill="#887AD6" transform="translate(236,216)"/>
<path d="M0 0 C2.74792483 3.40219265 6 7.48464588 6 12 C5.34 12 4.68 12 4 12 C3.32332002 10.75539217 2.65905281 9.50403104 2 8.25 C1.62875 7.55390625 1.2575 6.8578125 0.875 6.140625 C0 4 0 4 0 0 Z " fill="#444995" transform="translate(276,223)"/>
<path d="M0 0 C0.33 0 0.66 0 1 0 C1.33 4.62 1.66 9.24 2 14 C1.01 13.67 0.02 13.34 -1 13 C-0.67 8.71 -0.34 4.42 0 0 Z " fill="#534EB8" transform="translate(259,220)"/>
<path d="M0 0 C3 2 3 2 3.6875 5.125 C3.8421875 6.548125 3.8421875 6.548125 4 8 C3.01 8.66 2.02 9.32 1 10 C0.67 6.7 0.34 3.4 0 0 Z " fill="#0C0C0C" transform="translate(210,306)"/>
<path d="M0 0 C0.99 0.33 1.98 0.66 3 1 C4.1875 4.5625 4.1875 4.5625 5 8 C1.125 6.125 1.125 6.125 0 5 C-0.04063832 3.33382885 -0.042721 1.66611905 0 0 Z " fill="#4E35E8" transform="translate(262,202)"/>
<path d="M0 0 C0.99 0 1.98 0 3 0 C3.268125 0.804375 3.53625 1.60875 3.8125 2.4375 C4.204375 3.283125 4.59625 4.12875 5 5 C5.99 5.33 6.98 5.66 8 6 C5.6875 6.25 5.6875 6.25 3 6 C1.02389614 3.95575462 0 2.8823175 0 0 Z " fill="#080808" transform="translate(369,327)"/>
<path d="M0 0 C0.99 0 1.98 0 3 0 C3 2.64 3 5.28 3 8 C2.01 8 1.02 8 0 8 C0 5.36 0 2.72 0 0 Z " fill="#0B0B0C" transform="translate(253,303)"/>
<path d="M0 0 C0.33 0.66 0.66 1.32 1 2 C3.02463255 2.65213292 3.02463255 2.65213292 5 3 C0.25 6 0.25 6 -2 6 C-1.34 4.02 -0.68 2.04 0 0 Z " fill="#D1389E" transform="translate(243,265)"/>
<path d="M0 0 C1.98 0.99 1.98 0.99 4 2 C2.25 6.875 2.25 6.875 0 8 C0 5.36 0 2.72 0 0 Z " fill="#A877D0" transform="translate(284,246)"/>
<path d="M0 0 C1.65 0 3.3 0 5 0 C4.67 2.31 4.34 4.62 4 7 C0 2.25 0 2.25 0 0 Z " fill="#414A9E" transform="translate(263,241)"/>
<path d="M0 0 C2.475 0.495 2.475 0.495 5 1 C4.67 2.98 4.34 4.96 4 7 C2.10786631 4.61426621 0.97608217 2.92824652 0 0 Z " fill="#434C98" transform="translate(259,234)"/>
<path d="M0 0 C0.33 0.99 0.66 1.98 1 3 C1.66 3 2.32 3 3 3 C3.33 3.99 3.66 4.98 4 6 C2.02 6 0.04 6 -2 6 C-1.34 4.02 -0.68 2.04 0 0 Z " fill="#75ADF5" transform="translate(282,265)"/>
<path d="M0 0 C0.99 0 1.98 0 3 0 C3 2.64 3 5.28 3 8 C0.37613513 4.93882432 0 4.26826873 0 0 Z " fill="#5035E8" transform="translate(276,260)"/>
<path d="M0 0 C0.66 1.32 1.32 2.64 2 4 C1.01 5.485 1.01 5.485 0 7 C-0.39013716 8.9896995 -0.73202649 10.99019869 -1 13 C-1.33 13 -1.66 13 -2 13 C-2.19294408 8.17639811 -1.75747614 4.50353262 0 0 Z " fill="#CC3AC4" transform="translate(234,252)"/>
</svg>
